<svg width="61" height="39" viewBox="0 0 61 39" fill="none" xmlns="http://www.w3.org/2000/svg">
<path d="M56.0001 4H50.0001C49.7348 4 49.4805 4.10536 49.2929 4.29289C49.1054 4.48043 49.0001 4.73478 49.0001 5C49.0001 5.26522 49.1054 5.51957 49.2929 5.70711C49.4805 5.89464 49.7348 6 50.0001 6H53.5863L48.3276 11.2587C46.3412 9.63509 43.8068 8.83697 41.2485 9.02946C38.6902 9.22195 36.3037 10.3903 34.5827 12.2929C32.8617 14.1956 31.9377 16.6869 32.0019 19.2516C32.0661 21.8163 33.1136 24.2582 34.9277 26.0723C36.7418 27.8864 39.1838 28.9339 41.7485 28.9981C44.3132 29.0624 46.8045 28.1384 48.7071 26.4174C50.6097 24.6963 51.7781 22.3099 51.9706 19.7516C52.1631 17.1933 51.365 14.6589 49.7413 12.6725L55.0001 7.415V11C55.0001 11.2652 55.1054 11.5196 55.2929 11.7071C55.4805 11.8946 55.7348 12 56.0001 12C56.2653 12 56.5196 11.8946 56.7072 11.7071C56.8947 11.5196 57.0001 11.2652 57.0001 11V5C57.0001 4.73478 56.8947 4.48043 56.7072 4.29289C56.5196 4.10536 56.2653 4 56.0001 4ZM47.6551 24.6612C46.5361 25.7797 45.1106 26.5413 43.5589 26.8497C42.0071 27.1581 40.3988 26.9994 38.9372 26.3938C37.4756 25.7882 36.2264 24.7628 35.3475 23.4473C34.4686 22.1318 33.9995 20.5852 33.9995 19.0031C33.9995 17.421 34.4686 15.8745 35.3475 14.5589C36.2264 13.2434 37.4756 12.218 38.9372 11.6124C40.3988 11.0068 42.0071 10.8482 43.5589 11.1566C45.1106 11.465 46.5361 12.2265 47.6551 13.345C49.1531 14.847 49.9943 16.8818 49.9943 19.0031C49.9943 21.1245 49.1531 23.1592 47.6551 24.6612Z" fill="#343330"/>
<path d="M26 18.9999C26 17.0647 25.4385 15.1711 24.3835 13.5488C23.3286 11.9264 21.8257 10.645 20.0569 9.85989C18.2881 9.07481 16.3295 8.81981 14.4187 9.12582C12.5079 9.43182 10.7269 10.2857 9.29175 11.5838C7.8566 12.882 6.82894 14.5687 6.33341 16.4394C5.83788 18.31 5.89576 20.2843 6.50005 22.1227C7.10434 23.9611 8.22906 25.5846 9.73781 26.7965C11.2466 28.0083 13.0745 28.7564 15 28.9499V31.9999H11C10.7348 31.9999 10.4804 32.1052 10.2929 32.2928C10.1054 32.4803 10 32.7347 10 32.9999C10 33.2651 10.1054 33.5195 10.2929 33.707C10.4804 33.8945 10.7348 33.9999 11 33.9999H15V36.9999C15 37.2651 15.1054 37.5195 15.2929 37.707C15.4804 37.8945 15.7348 37.9999 16 37.9999C16.2652 37.9999 16.5196 37.8945 16.7071 37.707C16.8946 37.5195 17 37.2651 17 36.9999V33.9999H21C21.2652 33.9999 21.5196 33.8945 21.7071 33.707C21.8946 33.5195 22 33.2651 22 32.9999C22 32.7347 21.8946 32.4803 21.7071 32.2928C21.5196 32.1052 21.2652 31.9999 21 31.9999H17V28.9499C19.4654 28.699 21.7503 27.5428 23.4127 25.705C25.0751 23.8671 25.997 21.4781 26 18.9999ZM8 18.9999C8 17.4176 8.46919 15.8709 9.34824 14.5553C10.2273 13.2397 11.4767 12.2143 12.9385 11.6088C14.4003 11.0033 16.0089 10.8449 17.5607 11.1536C19.1126 11.4623 20.538 12.2242 21.6569 13.343C22.7757 14.4618 23.5376 15.8873 23.8463 17.4392C24.155 18.991 23.9965 20.5995 23.391 22.0613C22.7855 23.5232 21.7602 24.7726 20.4446 25.6516C19.129 26.5307 17.5823 26.9999 16 26.9999C13.879 26.9976 11.8455 26.154 10.3457 24.6542C8.84592 23.1544 8.00232 21.1209 8 18.9999Z" fill="#343330"/>
<path d="M39 18.9999C39 17.0647 38.4385 15.1711 37.3835 13.5488C36.3286 11.9264 34.8257 10.645 33.0569 9.85989C31.2881 9.07481 29.3295 8.81981 27.4187 9.12582C25.5079 9.43182 23.7269 10.2857 22.2918 11.5838C20.8566 12.882 19.8289 14.5687 19.3334 16.4394C18.8379 18.31 18.8958 20.2843 19.5001 22.1227C20.1043 23.9611 21.2291 25.5846 22.7378 26.7965C24.2466 28.0083 26.0745 28.7564 28 28.9499V31.9999H24C23.7348 31.9999 23.4804 32.1052 23.2929 32.2928C23.1054 32.4803 23 32.7347 23 32.9999C23 33.2651 23.1054 33.5195 23.2929 33.707C23.4804 33.8945 23.7348 33.9999 24 33.9999H28V36.9999C28 37.2651 28.1054 37.5195 28.2929 37.707C28.4804 37.8945 28.7348 37.9999 29 37.9999C29.2652 37.9999 29.5196 37.8945 29.7071 37.707C29.8946 37.5195 30 37.2651 30 36.9999V33.9999H34C34.2652 33.9999 34.5196 33.8945 34.7071 33.707C34.8946 33.5195 35 33.2651 35 32.9999C35 32.7347 34.8946 32.4803 34.7071 32.2928C34.5196 32.1052 34.2652 31.9999 34 31.9999H30V28.9499C32.4654 28.699 34.7503 27.5428 36.4127 25.705C38.0751 23.8671 38.997 21.4781 39 18.9999ZM21 18.9999C21 17.4176 21.4692 15.8709 22.3482 14.5553C23.2273 13.2397 24.4767 12.2143 25.9385 11.6088C27.4003 11.0033 29.0089 10.8449 30.5607 11.1536C32.1126 11.4623 33.538 12.2242 34.6569 13.343C35.7757 14.4618 36.5376 15.8873 36.8463 17.4392C37.155 18.991 36.9965 20.5995 36.391 22.0613C35.7855 23.5232 34.7602 24.7726 33.4446 25.6516C32.129 26.5307 30.5823 26.9999 29 26.9999C26.879 26.9976 24.8455 26.154 23.3457 24.6542C21.8459 23.1544 21.0023 21.1209 21 18.9999Z" fill="#343330"/>
</svg>
