<svg width="48" height="40" viewBox="0 0 48 40" fill="none" xmlns="http://www.w3.org/2000/svg">
<path d="M43.0001 4H37.0001C36.7348 4 36.4805 4.10536 36.2929 4.29289C36.1054 4.48043 36.0001 4.73478 36.0001 5C36.0001 5.26522 36.1054 5.51957 36.2929 5.70711C36.4805 5.89464 36.7348 6 37.0001 6H40.5863L35.3276 11.2587C33.3412 9.63509 30.8068 8.83697 28.2485 9.02946C25.6902 9.22195 23.3037 10.3903 21.5827 12.2929C19.8617 14.1956 18.9377 16.6869 19.0019 19.2516C19.0661 21.8163 20.1136 24.2582 21.9277 26.0723C23.7418 27.8864 26.1838 28.9339 28.7485 28.9981C31.3132 29.0624 33.8045 28.1384 35.7071 26.4174C37.6097 24.6963 38.7781 22.3099 38.9706 19.7516C39.1631 17.1933 38.365 14.6589 36.7413 12.6725L42.0001 7.415V11C42.0001 11.2652 42.1054 11.5196 42.2929 11.7071C42.4805 11.8946 42.7348 12 43.0001 12C43.2653 12 43.5196 11.8946 43.7072 11.7071C43.8947 11.5196 44.0001 11.2652 44.0001 11V5C44.0001 4.73478 43.8947 4.48043 43.7072 4.29289C43.5196 4.10536 43.2653 4 43.0001 4ZM34.6551 24.6612C33.5361 25.7797 32.1106 26.5413 30.5589 26.8497C29.0071 27.1581 27.3988 26.9994 25.9372 26.3938C24.4756 25.7882 23.2264 24.7628 22.3475 23.4473C21.4686 22.1318 20.9995 20.5852 20.9995 19.0031C20.9995 17.421 21.4686 15.8745 22.3475 14.5589C23.2264 13.2434 24.4756 12.218 25.9372 11.6124C27.3988 11.0068 29.0071 10.8482 30.5589 11.1566C32.1106 11.465 33.5361 12.2265 34.6551 13.345C36.1531 14.847 36.9943 16.8818 36.9943 19.0031C36.9943 21.1245 36.1531 23.1592 34.6551 24.6612Z" fill="#343330"/>
<path d="M26 19.9999C26 18.0647 25.4385 16.1711 24.3835 14.5488C23.3286 12.9264 21.8257 11.645 20.0569 10.8599C18.2881 10.0748 16.3295 9.81981 14.4187 10.1258C12.5079 10.4318 10.7269 11.2857 9.29175 12.5838C7.8566 13.882 6.82894 15.5687 6.33341 17.4394C5.83788 19.31 5.89576 21.2843 6.50005 23.1227C7.10434 24.9611 8.22906 26.5846 9.73781 27.7965C11.2466 29.0083 13.0745 29.7564 15 29.9499V32.9999H11C10.7348 32.9999 10.4804 33.1052 10.2929 33.2928C10.1054 33.4803 10 33.7347 10 33.9999C10 34.2651 10.1054 34.5195 10.2929 34.707C10.4804 34.8945 10.7348 34.9999 11 34.9999H15V37.9999C15 38.2651 15.1054 38.5195 15.2929 38.707C15.4804 38.8945 15.7348 38.9999 16 38.9999C16.2652 38.9999 16.5196 38.8945 16.7071 38.707C16.8946 38.5195 17 38.2651 17 37.9999V34.9999H21C21.2652 34.9999 21.5196 34.8945 21.7071 34.707C21.8946 34.5195 22 34.2651 22 33.9999C22 33.7347 21.8946 33.4803 21.7071 33.2928C21.5196 33.1052 21.2652 32.9999 21 32.9999H17V29.9499C19.4654 29.699 21.7503 28.5428 23.4127 26.705C25.0751 24.8671 25.997 22.4781 26 19.9999ZM8 19.9999C8 18.4176 8.46919 16.8709 9.34824 15.5553C10.2273 14.2397 11.4767 13.2143 12.9385 12.6088C14.4003 12.0033 16.0089 11.8449 17.5607 12.1536C19.1126 12.4623 20.538 13.2242 21.6569 14.343C22.7757 15.4618 23.5376 16.8873 23.8463 18.4392C24.155 19.991 23.9965 21.5995 23.391 23.0613C22.7855 24.5232 21.7602 25.7726 20.4446 26.6516C19.129 27.5307 17.5823 27.9999 16 27.9999C13.879 27.9976 11.8455 27.154 10.3457 25.6542C8.84592 24.1544 8.00232 22.1209 8 19.9999Z" fill="#343330"/>
</svg>
