<svg width="42" height="40" viewBox="0 0 42 40" fill="none" xmlns="http://www.w3.org/2000/svg">
<path d="M37.0001 12H31.0001C30.7348 12 30.4805 12.1054 30.2929 12.2929C30.1054 12.4804 30.0001 12.7348 30.0001 13C30.0001 13.2652 30.1054 13.5196 30.2929 13.7071C30.4805 13.8946 30.7348 14 31.0001 14H34.5863L29.3276 19.2587C27.3412 17.6351 24.8068 16.837 22.2485 17.0295C19.6902 17.222 17.3037 18.3903 15.5827 20.2929C13.8617 22.1956 12.9377 24.6869 13.0019 27.2516C13.0661 29.8163 14.1136 32.2582 15.9277 34.0723C17.7418 35.8864 20.1838 36.9339 22.7485 36.9981C25.3132 37.0624 27.8045 36.1384 29.7071 34.4174C31.6097 32.6963 32.7781 30.3099 32.9706 27.7516C33.1631 25.1933 32.365 22.6589 30.7413 20.6725L36.0001 15.415V19C36.0001 19.2652 36.1054 19.5196 36.2929 19.7071C36.4805 19.8946 36.7348 20 37.0001 20C37.2653 20 37.5196 19.8946 37.7072 19.7071C37.8947 19.5196 38.0001 19.2652 38.0001 19V13C38.0001 12.7348 37.8947 12.4804 37.7072 12.2929C37.5196 12.1054 37.2653 12 37.0001 12ZM28.6551 32.6612C27.5361 33.7797 26.1106 34.5413 24.5589 34.8497C23.0071 35.1581 21.3988 34.9994 19.9372 34.3938C18.4756 33.7882 17.2264 32.7628 16.3475 31.4473C15.4686 30.1318 14.9995 28.5852 14.9995 27.0031C14.9995 25.421 15.4686 23.8745 16.3475 22.5589C17.2264 21.2434 18.4756 20.218 19.9372 19.6124C21.3988 19.0068 23.0071 18.8482 24.5589 19.1566C26.1106 19.465 27.5361 20.2265 28.6551 21.345C30.1531 22.847 30.9943 24.8818 30.9943 27.0031C30.9943 29.1245 30.1531 31.1592 28.6551 32.6612Z" fill="#343330"/>
<path d="M27.0001 4H21.0001C20.7348 4 20.4805 4.10536 20.2929 4.29289C20.1054 4.48043 20.0001 4.73478 20.0001 5C20.0001 5.26522 20.1054 5.51957 20.2929 5.70711C20.4805 5.89464 20.7348 6 21.0001 6H24.5863L19.3276 11.2587C17.3412 9.63509 14.8068 8.83697 12.2485 9.02946C9.69019 9.22195 7.30373 10.3903 5.58269 12.2929C3.86166 14.1956 2.9377 16.6869 3.00192 19.2516C3.06613 21.8163 4.11362 24.2582 5.92772 26.0723C7.74182 27.8864 10.1838 28.9339 12.7485 28.9981C15.3132 29.0624 17.8045 28.1384 19.7071 26.4174C21.6097 24.6963 22.7781 22.3099 22.9706 19.7516C23.1631 17.1933 22.365 14.6589 20.7413 12.6725L26.0001 7.415V11C26.0001 11.2652 26.1054 11.5196 26.2929 11.7071C26.4805 11.8946 26.7348 12 27.0001 12C27.2653 12 27.5196 11.8946 27.7072 11.7071C27.8947 11.5196 28.0001 11.2652 28.0001 11V5C28.0001 4.73478 27.8947 4.48043 27.7072 4.29289C27.5196 4.10536 27.2653 4 27.0001 4ZM18.6551 24.6612C17.5361 25.7797 16.1106 26.5413 14.5589 26.8497C13.0071 27.1581 11.3988 26.9994 9.93717 26.3938C8.47557 25.7882 7.22636 24.7628 6.34746 23.4473C5.46857 22.1318 4.99947 20.5852 4.99947 19.0031C4.99947 17.421 5.46857 15.8745 6.34746 14.5589C7.22636 13.2434 8.47557 12.218 9.93717 11.6124C11.3988 11.0068 13.0071 10.8482 14.5589 11.1566C16.1106 11.465 17.5361 12.2265 18.6551 13.345C20.1531 14.847 20.9943 16.8818 20.9943 19.0031C20.9943 21.1245 20.1531 23.1592 18.6551 24.6612Z" fill="#343330"/>
</svg>
