<svg width="33" height="33" viewBox="0 0 33 33" fill="none" xmlns="http://www.w3.org/2000/svg">
<g clip-path="url(#clip0_165_739)">
<path fill-rule="evenodd" clip-rule="evenodd" d="M5.88639 32.6989C5.74216 32.8435 5.55824 32.942 5.35796 32.9819C5.15767 33.0219 4.95004 33.0014 4.76137 32.9232C4.57271 32.845 4.41151 32.7126 4.29822 32.5426C4.18493 32.3727 4.12465 32.173 4.12501 31.9688V28.875H1.03126C0.827034 28.8754 0.627295 28.8151 0.457367 28.7018C0.287439 28.5885 0.154977 28.4273 0.0767719 28.2386C-0.00143305 28.05 -0.0218582 27.8423 0.0180858 27.6421C0.0580298 27.4418 0.156544 27.2579 0.30114 27.1136L3.39489 24.0199C3.49084 23.9242 3.6047 23.8483 3.72998 23.7966C3.85526 23.745 3.9895 23.7185 4.12501 23.7188H7.82308L8.9162 22.6256C7.32601 20.9715 6.1772 19.3669 5.4017 17.8406C3.75583 14.5922 3.80326 11.6614 4.96239 9.40088C7.06614 5.29031 12.7463 3.73106 16.5 6.66806C19.0781 4.64681 22.572 4.75406 25.1873 6.35456L27.4148 4.125L25.0532 1.76137C24.9087 1.61727 24.8103 1.43354 24.7703 1.23345C24.7302 1.03336 24.7505 0.82589 24.8284 0.637311C24.9064 0.448732 25.0385 0.287517 25.2081 0.174069C25.3778 0.0606222 25.5772 4.33432e-05 25.7813 0L31.9688 0C32.2423 0 32.5046 0.108649 32.698 0.302046C32.8914 0.495443 33 0.757746 33 1.03125V7.21875C33.0004 7.42298 32.9401 7.62272 32.8268 7.79265C32.7135 7.96257 32.5523 8.09504 32.3637 8.17324C32.175 8.25145 31.9674 8.27187 31.7671 8.23193C31.5668 8.19198 31.3829 8.09347 31.2386 7.94888L28.875 5.58319L26.8001 7.65806C27.2869 8.16956 27.7076 8.75325 28.0376 9.40088C29.1968 11.6614 29.2442 14.5922 27.5983 17.8406C25.9628 21.0643 22.6586 24.6221 17.0693 28.3181L16.5 28.6935L15.9308 28.3181C13.9783 27.0448 12.1269 25.623 10.393 24.0653L9.28127 25.179V28.875C9.28151 29.0105 9.25504 29.1448 9.20337 29.27C9.1517 29.3953 9.07584 29.5092 8.98014 29.6051L5.88639 32.6989ZM11.8532 22.605C13.316 23.9151 14.8687 25.1212 16.5 26.2144C21.5655 22.7782 24.3932 19.5999 25.7586 16.9084C27.159 14.1446 27.0105 11.9171 26.202 10.3393C24.517 7.04962 19.8351 6.10294 17.2384 8.76975L16.5 9.52875L15.7616 8.76975C13.165 6.10294 8.48101 7.04962 6.79801 10.3393C5.98951 11.9192 5.84101 14.1446 7.24145 16.9084C7.90764 18.2201 8.92239 19.6515 10.3744 21.1674L14.223 17.3167C14.4167 17.1231 14.6793 17.0143 14.9531 17.0143C15.227 17.0143 15.4896 17.1231 15.6833 17.3167C15.8769 17.5104 15.9857 17.773 15.9857 18.0469C15.9857 18.3207 15.8769 18.5834 15.6833 18.777L11.8532 22.605Z" fill="black"/>
</g>
<defs>
<clipPath id="clip0_165_739">
<rect width="33" height="33" fill="white"/>
</clipPath>
</defs>
</svg>
