<svg width="43" height="43" viewBox="0 0 43 43" fill="none" xmlns="http://www.w3.org/2000/svg">
<path d="M5.375 37.6251C4.38958 37.6251 3.54631 37.2745 2.84517 36.5734C2.14403 35.8722 1.79286 35.0284 1.79167 34.0417V12.5417C1.79167 11.5563 2.14283 10.7131 2.84517 10.0119C3.5475 9.31078 4.39078 8.95961 5.375 8.95841H11.0188L14.3333 5.37508H25.0833V8.95841H15.901L12.6313 12.5417H5.375V34.0417H34.0417V17.9167H37.625V34.0417C37.625 35.0272 37.2744 35.871 36.5733 36.5734C35.8722 37.2757 35.0283 37.6263 34.0417 37.6251H5.375ZM34.0417 12.5417V8.95841H30.4583V5.37508H34.0417V1.79175H37.625V5.37508H41.2083V8.95841H37.625V12.5417H34.0417ZM19.7083 31.3542C21.9479 31.3542 23.8519 30.5707 25.4202 29.0036C26.9885 27.4365 27.772 25.5325 27.7708 23.2917C27.7696 21.051 26.9861 19.1476 25.4202 17.5817C23.8543 16.0158 21.9503 15.2316 19.7083 15.2292C17.4664 15.2269 15.563 16.011 13.9983 17.5817C12.4336 19.1524 11.6494 21.0557 11.6458 23.2917C11.6423 25.5277 12.4264 27.4317 13.9983 29.0036C15.5702 30.5755 17.4735 31.359 19.7083 31.3542ZM19.7083 27.7709C18.4542 27.7709 17.3941 27.3379 16.5281 26.472C15.6622 25.606 15.2292 24.5459 15.2292 23.2917C15.2292 22.0376 15.6622 20.9775 16.5281 20.1115C17.3941 19.2456 18.4542 18.8126 19.7083 18.8126C20.9625 18.8126 22.0226 19.2456 22.8885 20.1115C23.7545 20.9775 24.1875 22.0376 24.1875 23.2917C24.1875 24.5459 23.7545 25.606 22.8885 26.472C22.0226 27.3379 20.9625 27.7709 19.7083 27.7709Z" fill="black"/>
</svg>
