<svg width="21" height="21" viewBox="0 0 21 21" fill="none" xmlns="http://www.w3.org/2000/svg">
<g clip-path="url(#clip0_9_485)">
<path d="M20.4895 10.4371C20.4895 9.61769 20.4214 9.01975 20.2742 8.39967H10.6992V12.098H16.3195C16.2062 13.0171 15.5943 14.4012 14.2346 15.3313L14.2155 15.4551L17.2429 17.7469L17.4527 17.7674C19.3789 16.0289 20.4895 13.471 20.4895 10.4371Z" fill="#4285F4"/>
<path d="M10.6991 20.1814C13.4526 20.1814 15.7642 19.2955 17.4526 17.7675L14.2345 15.3314C13.3733 15.9183 12.2175 16.3279 10.6991 16.3279C8.0023 16.3279 5.7134 14.5895 4.89747 12.1867L4.77787 12.1966L1.62991 14.5773L1.58875 14.6892C3.26576 17.9446 6.71048 20.1814 10.6991 20.1814Z" fill="#34A853"/>
<path d="M4.8976 12.1867C4.68231 11.5666 4.55771 10.9022 4.55771 10.2157C4.55771 9.52916 4.68231 8.86481 4.88627 8.24473L4.88057 8.11267L1.69316 5.69374L1.58888 5.74221C0.897698 7.09313 0.501099 8.61015 0.501099 10.2157C0.501099 11.8213 0.897698 13.3382 1.58888 14.6892L4.8976 12.1867Z" fill="#FBBC05"/>
<path d="M10.6991 4.10336C12.6141 4.10336 13.9058 4.91168 14.6424 5.58718L17.5205 2.84107C15.7529 1.2355 13.4526 0.25 10.6991 0.25C6.71048 0.25 3.26576 2.48672 1.58875 5.74214L4.88614 8.24466C5.7134 5.84183 8.0023 4.10336 10.6991 4.10336Z" fill="#EB4335"/>
</g>
<defs>
<clipPath id="clip0_9_485">
<rect width="20" height="20" fill="white" transform="translate(0.5 0.25)"/>
</clipPath>
</defs>
</svg>
